<svg version="1.1" xmlns="http://www.w3.org/2000/svg" viewBox="0 0 6115.441623263894 2345.6062934027786" width="12230.883246527788" height="4691.212586805557">
  <!-- svg-source:excalidraw -->
  
  <defs>
    <style class="style-fonts">
      @font-face {
        font-family: "Virgil";
        src: url("https://excalidraw.com/Virgil.woff2");
      }
      @font-face {
        font-family: "Cascadia";
        src: url("https://excalidraw.com/Cascadia.woff2");
      }
    </style>
    
  </defs>
  <rect x="0" y="0" width="6115.441623263894" height="2345.6062934027786" fill="#ffffff"></rect><g transform="translate(10 464.1014322916679) rotate(0 147.65625 259.2)"><text x="0" y="0" font-family="Cascadia, Segoe UI Emoji" font-size="36px" fill="#1e1e1e" text-anchor="start" style="white-space: pre;" direction="ltr" dominant-baseline="text-before-edge">struct board {</text><text x="0" y="43.199999999999996" font-family="Cascadia, Segoe UI Emoji" font-size="36px" fill="#1e1e1e" text-anchor="start" style="white-space: pre;" direction="ltr" dominant-baseline="text-before-edge">    char a0;</text><text x="0" y="86.39999999999999" font-family="Cascadia, Segoe UI Emoji" font-size="36px" fill="#1e1e1e" text-anchor="start" style="white-space: pre;" direction="ltr" dominant-baseline="text-before-edge">    char a1;</text><text x="0" y="129.6" font-family="Cascadia, Segoe UI Emoji" font-size="36px" fill="#1e1e1e" text-anchor="start" style="white-space: pre;" direction="ltr" dominant-baseline="text-before-edge">    char a2;</text><text x="0" y="172.79999999999998" font-family="Cascadia, Segoe UI Emoji" font-size="36px" fill="#1e1e1e" text-anchor="start" style="white-space: pre;" direction="ltr" dominant-baseline="text-before-edge">    char b0;</text><text x="0" y="215.99999999999997" font-family="Cascadia, Segoe UI Emoji" font-size="36px" fill="#1e1e1e" text-anchor="start" style="white-space: pre;" direction="ltr" dominant-baseline="text-before-edge">    char b1;</text><text x="0" y="259.2" font-family="Cascadia, Segoe UI Emoji" font-size="36px" fill="#1e1e1e" text-anchor="start" style="white-space: pre;" direction="ltr" dominant-baseline="text-before-edge">    char b2;</text><text x="0" y="302.4" font-family="Cascadia, Segoe UI Emoji" font-size="36px" fill="#1e1e1e" text-anchor="start" style="white-space: pre;" direction="ltr" dominant-baseline="text-before-edge">    char c0;</text><text x="0" y="345.59999999999997" font-family="Cascadia, Segoe UI Emoji" font-size="36px" fill="#1e1e1e" text-anchor="start" style="white-space: pre;" direction="ltr" dominant-baseline="text-before-edge">    char c1;</text><text x="0" y="388.79999999999995" font-family="Cascadia, Segoe UI Emoji" font-size="36px" fill="#1e1e1e" text-anchor="start" style="white-space: pre;" direction="ltr" dominant-baseline="text-before-edge">    char c2;</text><text x="0" y="431.99999999999994" font-family="Cascadia, Segoe UI Emoji" font-size="36px" fill="#1e1e1e" text-anchor="start" style="white-space: pre;" direction="ltr" dominant-baseline="text-before-edge">};</text><text x="0" y="475.19999999999993" font-family="Cascadia, Segoe UI Emoji" font-size="36px" fill="#1e1e1e" text-anchor="start" style="white-space: pre;" direction="ltr" dominant-baseline="text-before-edge"></text></g><g transform="translate(418.9453125 557.7553819444456) rotate(0 316.40625 120)"><text x="0" y="0" font-family="Cascadia, Segoe UI Emoji" font-size="20px" fill="#2f9e44" text-anchor="start" style="white-space: pre;" direction="ltr" dominant-baseline="text-before-edge"></text><text x="0" y="24" font-family="Cascadia, Segoe UI Emoji" font-size="20px" fill="#2f9e44" text-anchor="start" style="white-space: pre;" direction="ltr" dominant-baseline="text-before-edge">void board_print(struct board game) {</text><text x="0" y="48" font-family="Cascadia, Segoe UI Emoji" font-size="20px" fill="#2f9e44" text-anchor="start" style="white-space: pre;" direction="ltr" dominant-baseline="text-before-edge">    printf("  a b c\n");</text><text x="0" y="72" font-family="Cascadia, Segoe UI Emoji" font-size="20px" fill="#2f9e44" text-anchor="start" style="white-space: pre;" direction="ltr" dominant-baseline="text-before-edge">    printf("0 %c %c %c\n", game.a0, game.b0, game.c0);</text><text x="0" y="96" font-family="Cascadia, Segoe UI Emoji" font-size="20px" fill="#2f9e44" text-anchor="start" style="white-space: pre;" direction="ltr" dominant-baseline="text-before-edge">    printf("1 %c %c %c\n", game.a1, game.b1, game.c1);</text><text x="0" y="120" font-family="Cascadia, Segoe UI Emoji" font-size="20px" fill="#2f9e44" text-anchor="start" style="white-space: pre;" direction="ltr" dominant-baseline="text-before-edge">    printf("2 %c %c %c\n", game.a2, game.b2, game.c2);</text><text x="0" y="144" font-family="Cascadia, Segoe UI Emoji" font-size="20px" fill="#2f9e44" text-anchor="start" style="white-space: pre;" direction="ltr" dominant-baseline="text-before-edge">    printf("\n");</text><text x="0" y="168" font-family="Cascadia, Segoe UI Emoji" font-size="20px" fill="#2f9e44" text-anchor="start" style="white-space: pre;" direction="ltr" dominant-baseline="text-before-edge"></text><text x="0" y="192" font-family="Cascadia, Segoe UI Emoji" font-size="20px" fill="#2f9e44" text-anchor="start" style="white-space: pre;" direction="ltr" dominant-baseline="text-before-edge">    game.a1 = 'Z';</text><text x="0" y="216" font-family="Cascadia, Segoe UI Emoji" font-size="20px" fill="#2f9e44" text-anchor="start" style="white-space: pre;" direction="ltr" dominant-baseline="text-before-edge">}</text></g><g transform="translate(445.10525173611177 1212.4062934027788) rotate(0 738.28125 561.5999999999999)"><text x="0" y="0" font-family="Cascadia, Segoe UI Emoji" font-size="36px" fill="#1e1e1e" text-anchor="start" style="white-space: pre;" direction="ltr" dominant-baseline="text-before-edge"></text><text x="0" y="43.199999999999996" font-family="Cascadia, Segoe UI Emoji" font-size="36px" fill="#1e1e1e" text-anchor="start" style="white-space: pre;" direction="ltr" dominant-baseline="text-before-edge">int board_set(struct board *game, char symbol, struct user_input ui) {</text><text x="0" y="86.39999999999999" font-family="Cascadia, Segoe UI Emoji" font-size="36px" fill="#1e1e1e" text-anchor="start" style="white-space: pre;" direction="ltr" dominant-baseline="text-before-edge">    int valid_move = 1;</text><text x="0" y="129.6" font-family="Cascadia, Segoe UI Emoji" font-size="36px" fill="#1e1e1e" text-anchor="start" style="white-space: pre;" direction="ltr" dominant-baseline="text-before-edge">    if (ui.col == 'a' &amp;&amp; ui.row == '0') {</text><text x="0" y="172.79999999999998" font-family="Cascadia, Segoe UI Emoji" font-size="36px" fill="#1e1e1e" text-anchor="start" style="white-space: pre;" direction="ltr" dominant-baseline="text-before-edge">        game-&gt;a0 = symbol;</text><text x="0" y="215.99999999999997" font-family="Cascadia, Segoe UI Emoji" font-size="36px" fill="#1e1e1e" text-anchor="start" style="white-space: pre;" direction="ltr" dominant-baseline="text-before-edge">    } else if (ui.col == 'a' &amp;&amp; ui.row == '1') {</text><text x="0" y="259.2" font-family="Cascadia, Segoe UI Emoji" font-size="36px" fill="#1e1e1e" text-anchor="start" style="white-space: pre;" direction="ltr" dominant-baseline="text-before-edge">        game-&gt;a1 = symbol;</text><text x="0" y="302.4" font-family="Cascadia, Segoe UI Emoji" font-size="36px" fill="#1e1e1e" text-anchor="start" style="white-space: pre;" direction="ltr" dominant-baseline="text-before-edge">    } else if (ui.col == 'a' &amp;&amp; ui.row == '2') {</text><text x="0" y="345.59999999999997" font-family="Cascadia, Segoe UI Emoji" font-size="36px" fill="#1e1e1e" text-anchor="start" style="white-space: pre;" direction="ltr" dominant-baseline="text-before-edge">        game-&gt;a2 = symbol;</text><text x="0" y="388.79999999999995" font-family="Cascadia, Segoe UI Emoji" font-size="36px" fill="#1e1e1e" text-anchor="start" style="white-space: pre;" direction="ltr" dominant-baseline="text-before-edge">    } else if (ui.col == 'b' &amp;&amp; ui.row == '0') {</text><text x="0" y="431.99999999999994" font-family="Cascadia, Segoe UI Emoji" font-size="36px" fill="#1e1e1e" text-anchor="start" style="white-space: pre;" direction="ltr" dominant-baseline="text-before-edge">        game-&gt;b0 = symbol;</text><text x="0" y="475.19999999999993" font-family="Cascadia, Segoe UI Emoji" font-size="36px" fill="#1e1e1e" text-anchor="start" style="white-space: pre;" direction="ltr" dominant-baseline="text-before-edge">    } else if (ui.col == 'b' &amp;&amp; ui.row == '1') {</text><text x="0" y="518.4" font-family="Cascadia, Segoe UI Emoji" font-size="36px" fill="#1e1e1e" text-anchor="start" style="white-space: pre;" direction="ltr" dominant-baseline="text-before-edge">        game-&gt;b1 = symbol;</text><text x="0" y="561.5999999999999" font-family="Cascadia, Segoe UI Emoji" font-size="36px" fill="#1e1e1e" text-anchor="start" style="white-space: pre;" direction="ltr" dominant-baseline="text-before-edge">    } else if (ui.col == 'b' &amp;&amp; ui.row == '2') {</text><text x="0" y="604.8" font-family="Cascadia, Segoe UI Emoji" font-size="36px" fill="#1e1e1e" text-anchor="start" style="white-space: pre;" direction="ltr" dominant-baseline="text-before-edge">        game-&gt;b2 = symbol;</text><text x="0" y="647.9999999999999" font-family="Cascadia, Segoe UI Emoji" font-size="36px" fill="#1e1e1e" text-anchor="start" style="white-space: pre;" direction="ltr" dominant-baseline="text-before-edge">    } else if (ui.col == 'c' &amp;&amp; ui.row == '0') {</text><text x="0" y="691.1999999999999" font-family="Cascadia, Segoe UI Emoji" font-size="36px" fill="#1e1e1e" text-anchor="start" style="white-space: pre;" direction="ltr" dominant-baseline="text-before-edge">        game-&gt;c0 = symbol;</text><text x="0" y="734.4" font-family="Cascadia, Segoe UI Emoji" font-size="36px" fill="#1e1e1e" text-anchor="start" style="white-space: pre;" direction="ltr" dominant-baseline="text-before-edge">    } else if (ui.col == 'c' &amp;&amp; ui.row == '1') {</text><text x="0" y="777.5999999999999" font-family="Cascadia, Segoe UI Emoji" font-size="36px" fill="#1e1e1e" text-anchor="start" style="white-space: pre;" direction="ltr" dominant-baseline="text-before-edge">        game-&gt;c1 = symbol;</text><text x="0" y="820.8" font-family="Cascadia, Segoe UI Emoji" font-size="36px" fill="#1e1e1e" text-anchor="start" style="white-space: pre;" direction="ltr" dominant-baseline="text-before-edge">    } else if (ui.col == 'c' &amp;&amp; ui.row == '2') {</text><text x="0" y="863.9999999999999" font-family="Cascadia, Segoe UI Emoji" font-size="36px" fill="#1e1e1e" text-anchor="start" style="white-space: pre;" direction="ltr" dominant-baseline="text-before-edge">        game-&gt;c2 = symbol;</text><text x="0" y="907.1999999999999" font-family="Cascadia, Segoe UI Emoji" font-size="36px" fill="#1e1e1e" text-anchor="start" style="white-space: pre;" direction="ltr" dominant-baseline="text-before-edge">    } else {</text><text x="0" y="950.3999999999999" font-family="Cascadia, Segoe UI Emoji" font-size="36px" fill="#1e1e1e" text-anchor="start" style="white-space: pre;" direction="ltr" dominant-baseline="text-before-edge">        valid_move = 0;</text><text x="0" y="993.5999999999999" font-family="Cascadia, Segoe UI Emoji" font-size="36px" fill="#1e1e1e" text-anchor="start" style="white-space: pre;" direction="ltr" dominant-baseline="text-before-edge">    }</text><text x="0" y="1036.8" font-family="Cascadia, Segoe UI Emoji" font-size="36px" fill="#1e1e1e" text-anchor="start" style="white-space: pre;" direction="ltr" dominant-baseline="text-before-edge">    return valid_move;</text><text x="0" y="1080" font-family="Cascadia, Segoe UI Emoji" font-size="36px" fill="#1e1e1e" text-anchor="start" style="white-space: pre;" direction="ltr" dominant-baseline="text-before-edge">}</text></g><g transform="translate(1177.4164496527774 477.84965277777883) rotate(0 385.546875 184.8)"><text x="0" y="0" font-family="Cascadia, Segoe UI Emoji" font-size="28px" fill="#1e1e1e" text-anchor="start" style="white-space: pre;" direction="ltr" dominant-baseline="text-before-edge"></text><text x="0" y="33.6" font-family="Cascadia, Segoe UI Emoji" font-size="28px" fill="#1e1e1e" text-anchor="start" style="white-space: pre;" direction="ltr" dominant-baseline="text-before-edge">struct user_input get_user_input(char symbol) {</text><text x="0" y="67.2" font-family="Cascadia, Segoe UI Emoji" font-size="28px" fill="#1e1e1e" text-anchor="start" style="white-space: pre;" direction="ltr" dominant-baseline="text-before-edge">    struct user_input ui = {0};</text><text x="0" y="100.80000000000001" font-family="Cascadia, Segoe UI Emoji" font-size="28px" fill="#1e1e1e" text-anchor="start" style="white-space: pre;" direction="ltr" dominant-baseline="text-before-edge">    printf("%c&gt; ", symbol);</text><text x="0" y="134.4" font-family="Cascadia, Segoe UI Emoji" font-size="28px" fill="#1e1e1e" text-anchor="start" style="white-space: pre;" direction="ltr" dominant-baseline="text-before-edge">    ui.col = getchar();</text><text x="0" y="168" font-family="Cascadia, Segoe UI Emoji" font-size="28px" fill="#1e1e1e" text-anchor="start" style="white-space: pre;" direction="ltr" dominant-baseline="text-before-edge">    ui.row = getchar();</text><text x="0" y="201.60000000000002" font-family="Cascadia, Segoe UI Emoji" font-size="28px" fill="#1e1e1e" text-anchor="start" style="white-space: pre;" direction="ltr" dominant-baseline="text-before-edge">    getchar(); // ignore the new line</text><text x="0" y="235.20000000000002" font-family="Cascadia, Segoe UI Emoji" font-size="28px" fill="#1e1e1e" text-anchor="start" style="white-space: pre;" direction="ltr" dominant-baseline="text-before-edge">    return ui;</text><text x="0" y="268.8" font-family="Cascadia, Segoe UI Emoji" font-size="28px" fill="#1e1e1e" text-anchor="start" style="white-space: pre;" direction="ltr" dominant-baseline="text-before-edge">}</text><text x="0" y="302.40000000000003" font-family="Cascadia, Segoe UI Emoji" font-size="28px" fill="#1e1e1e" text-anchor="start" style="white-space: pre;" direction="ltr" dominant-baseline="text-before-edge"></text><text x="0" y="336" font-family="Cascadia, Segoe UI Emoji" font-size="28px" fill="#1e1e1e" text-anchor="start" style="white-space: pre;" direction="ltr" dominant-baseline="text-before-edge"></text></g><g transform="translate(1977.0117187499977 515.6933593750013) rotate(0 380.859375 396)"><text x="0" y="0" font-family="Cascadia, Segoe UI Emoji" font-size="20px" fill="#1e1e1e" text-anchor="start" style="white-space: pre;" direction="ltr" dominant-baseline="text-before-edge"></text><text x="0" y="24" font-family="Cascadia, Segoe UI Emoji" font-size="20px" fill="#1e1e1e" text-anchor="start" style="white-space: pre;" direction="ltr" dominant-baseline="text-before-edge">int main(void){</text><text x="0" y="48" font-family="Cascadia, Segoe UI Emoji" font-size="20px" fill="#1e1e1e" text-anchor="start" style="white-space: pre;" direction="ltr" dominant-baseline="text-before-edge">    char current_symbol = 'X';</text><text x="0" y="72" font-family="Cascadia, Segoe UI Emoji" font-size="20px" fill="#1e1e1e" text-anchor="start" style="white-space: pre;" direction="ltr" dominant-baseline="text-before-edge"></text><text x="0" y="96" font-family="Cascadia, Segoe UI Emoji" font-size="20px" fill="#1e1e1e" text-anchor="start" style="white-space: pre;" direction="ltr" dominant-baseline="text-before-edge">    struct board game_board = {</text><text x="0" y="120" font-family="Cascadia, Segoe UI Emoji" font-size="20px" fill="#1e1e1e" text-anchor="start" style="white-space: pre;" direction="ltr" dominant-baseline="text-before-edge">        .a0 = '-',</text><text x="0" y="144" font-family="Cascadia, Segoe UI Emoji" font-size="20px" fill="#1e1e1e" text-anchor="start" style="white-space: pre;" direction="ltr" dominant-baseline="text-before-edge">        .a1 = '-',</text><text x="0" y="168" font-family="Cascadia, Segoe UI Emoji" font-size="20px" fill="#1e1e1e" text-anchor="start" style="white-space: pre;" direction="ltr" dominant-baseline="text-before-edge">        .a2 = '-',</text><text x="0" y="192" font-family="Cascadia, Segoe UI Emoji" font-size="20px" fill="#1e1e1e" text-anchor="start" style="white-space: pre;" direction="ltr" dominant-baseline="text-before-edge">        .b0 = '-',</text><text x="0" y="216" font-family="Cascadia, Segoe UI Emoji" font-size="20px" fill="#1e1e1e" text-anchor="start" style="white-space: pre;" direction="ltr" dominant-baseline="text-before-edge">        .b1 = '-',</text><text x="0" y="240" font-family="Cascadia, Segoe UI Emoji" font-size="20px" fill="#1e1e1e" text-anchor="start" style="white-space: pre;" direction="ltr" dominant-baseline="text-before-edge">        .b2 = '-',</text><text x="0" y="264" font-family="Cascadia, Segoe UI Emoji" font-size="20px" fill="#1e1e1e" text-anchor="start" style="white-space: pre;" direction="ltr" dominant-baseline="text-before-edge">        .c0 = '-',</text><text x="0" y="288" font-family="Cascadia, Segoe UI Emoji" font-size="20px" fill="#1e1e1e" text-anchor="start" style="white-space: pre;" direction="ltr" dominant-baseline="text-before-edge">        .c1 = '-',</text><text x="0" y="312" font-family="Cascadia, Segoe UI Emoji" font-size="20px" fill="#1e1e1e" text-anchor="start" style="white-space: pre;" direction="ltr" dominant-baseline="text-before-edge">        .c2 = '-',</text><text x="0" y="336" font-family="Cascadia, Segoe UI Emoji" font-size="20px" fill="#1e1e1e" text-anchor="start" style="white-space: pre;" direction="ltr" dominant-baseline="text-before-edge">    }; </text><text x="0" y="360" font-family="Cascadia, Segoe UI Emoji" font-size="20px" fill="#1e1e1e" text-anchor="start" style="white-space: pre;" direction="ltr" dominant-baseline="text-before-edge"></text><text x="0" y="384" font-family="Cascadia, Segoe UI Emoji" font-size="20px" fill="#1e1e1e" text-anchor="start" style="white-space: pre;" direction="ltr" dominant-baseline="text-before-edge">    while(1) {</text><text x="0" y="408" font-family="Cascadia, Segoe UI Emoji" font-size="20px" fill="#1e1e1e" text-anchor="start" style="white-space: pre;" direction="ltr" dominant-baseline="text-before-edge">        board_print(game_board);</text><text x="0" y="432" font-family="Cascadia, Segoe UI Emoji" font-size="20px" fill="#1e1e1e" text-anchor="start" style="white-space: pre;" direction="ltr" dominant-baseline="text-before-edge"></text><text x="0" y="456" font-family="Cascadia, Segoe UI Emoji" font-size="20px" fill="#1e1e1e" text-anchor="start" style="white-space: pre;" direction="ltr" dominant-baseline="text-before-edge">        struct user_input input = get_user_input(current_symbol);</text><text x="0" y="480" font-family="Cascadia, Segoe UI Emoji" font-size="20px" fill="#1e1e1e" text-anchor="start" style="white-space: pre;" direction="ltr" dominant-baseline="text-before-edge">        input.col = 'a';</text><text x="0" y="504" font-family="Cascadia, Segoe UI Emoji" font-size="20px" fill="#1e1e1e" text-anchor="start" style="white-space: pre;" direction="ltr" dominant-baseline="text-before-edge">        if (board_set(&amp;game_board, current_symbol, input)) {</text><text x="0" y="528" font-family="Cascadia, Segoe UI Emoji" font-size="20px" fill="#1e1e1e" text-anchor="start" style="white-space: pre;" direction="ltr" dominant-baseline="text-before-edge">            // only change the symbol if the move is valid</text><text x="0" y="552" font-family="Cascadia, Segoe UI Emoji" font-size="20px" fill="#1e1e1e" text-anchor="start" style="white-space: pre;" direction="ltr" dominant-baseline="text-before-edge">            toggle_symbol(&amp;current_symbol);</text><text x="0" y="576" font-family="Cascadia, Segoe UI Emoji" font-size="20px" fill="#1e1e1e" text-anchor="start" style="white-space: pre;" direction="ltr" dominant-baseline="text-before-edge">        }</text><text x="0" y="600" font-family="Cascadia, Segoe UI Emoji" font-size="20px" fill="#1e1e1e" text-anchor="start" style="white-space: pre;" direction="ltr" dominant-baseline="text-before-edge"></text><text x="0" y="624" font-family="Cascadia, Segoe UI Emoji" font-size="20px" fill="#1e1e1e" text-anchor="start" style="white-space: pre;" direction="ltr" dominant-baseline="text-before-edge">        if (check_win(game_board,'X')) {</text><text x="0" y="648" font-family="Cascadia, Segoe UI Emoji" font-size="20px" fill="#1e1e1e" text-anchor="start" style="white-space: pre;" direction="ltr" dominant-baseline="text-before-edge">            printf("X wins\n");</text><text x="0" y="672" font-family="Cascadia, Segoe UI Emoji" font-size="20px" fill="#1e1e1e" text-anchor="start" style="white-space: pre;" direction="ltr" dominant-baseline="text-before-edge">            break;</text><text x="0" y="696" font-family="Cascadia, Segoe UI Emoji" font-size="20px" fill="#1e1e1e" text-anchor="start" style="white-space: pre;" direction="ltr" dominant-baseline="text-before-edge">        }</text><text x="0" y="720" font-family="Cascadia, Segoe UI Emoji" font-size="20px" fill="#1e1e1e" text-anchor="start" style="white-space: pre;" direction="ltr" dominant-baseline="text-before-edge">    }</text><text x="0" y="744" font-family="Cascadia, Segoe UI Emoji" font-size="20px" fill="#1e1e1e" text-anchor="start" style="white-space: pre;" direction="ltr" dominant-baseline="text-before-edge">    return 0;</text><text x="0" y="768" font-family="Cascadia, Segoe UI Emoji" font-size="20px" fill="#1e1e1e" text-anchor="start" style="white-space: pre;" direction="ltr" dominant-baseline="text-before-edge">}</text></g><g transform="translate(78.15212673611285 470.5251736111124) rotate(0 0.00005000000000165983 0.00004999999999988347)" stroke="none"><path fill="#1e1e1e" d="M 1.57,-1.57 Q 1.57,-1.57 1.77,-1.27 1.98,-0.98 2.09,-0.64 2.20,-0.29 2.19,0.05 2.18,0.41 2.05,0.75 1.93,1.09 1.70,1.37 1.48,1.65 1.18,1.84 0.87,2.04 0.52,2.12 0.18,2.21 -0.17,2.18 -0.53,2.15 -0.86,2.01 -1.19,1.87 -1.46,1.63 -1.73,1.39 -1.90,1.07 -2.08,0.76 -2.15,0.41 -2.21,0.05 -2.17,-0.29 -2.12,-0.65 -1.96,-0.97 -1.80,-1.29 -1.54,-1.54 -1.29,-1.80 -0.97,-1.96 -0.65,-2.12 -0.29,-2.17 0.06,-2.21 0.41,-2.15 0.76,-2.08 1.07,-1.90 1.39,-1.73 1.63,-1.46 1.87,-1.19 2.01,-0.86 2.15,-0.53 2.18,-0.17 2.21,0.18 2.12,0.52 2.03,0.87 1.84,1.18 1.65,1.48 1.37,1.70 1.09,1.93 0.75,2.05 0.41,2.18 0.05,2.19 -0.30,2.20 -0.64,2.09 -0.98,1.98 -1.27,1.77 -1.57,1.56 -1.57,1.57 -1.57,1.57 -1.73,1.35 -1.90,1.14 -2.01,0.90 -2.12,0.66 -2.16,0.39 -2.21,0.13 -2.20,-0.13 -2.18,-0.40 -2.10,-0.65 -2.02,-0.91 -1.88,-1.14 -1.74,-1.36 -1.55,-1.55 -1.36,-1.74 -1.14,-1.88 -0.91,-2.02 -0.65,-2.10 -0.40,-2.18 -0.13,-2.20 0.13,-2.21 0.39,-2.16 0.66,-2.12 0.90,-2.01 1.14,-1.90 1.35,-1.73 1.57,-1.57 1.57,-1.57 L 1.57,-1.57 Z"></path></g><g transform="translate(1255.574001736115 822.6128472222233) rotate(0 285.9375 86.4)"><text x="0" y="0" font-family="Cascadia, Segoe UI Emoji" font-size="16px" fill="#1e1e1e" text-anchor="start" style="white-space: pre;" direction="ltr" dominant-baseline="text-before-edge"></text><text x="0" y="19.2" font-family="Cascadia, Segoe UI Emoji" font-size="16px" fill="#1e1e1e" text-anchor="start" style="white-space: pre;" direction="ltr" dominant-baseline="text-before-edge">void toggle_symbol(char *symbol) {</text><text x="0" y="38.4" font-family="Cascadia, Segoe UI Emoji" font-size="16px" fill="#1e1e1e" text-anchor="start" style="white-space: pre;" direction="ltr" dominant-baseline="text-before-edge">    // if the symbol is X, set it to 0, if its 0, set it to X</text><text x="0" y="57.599999999999994" font-family="Cascadia, Segoe UI Emoji" font-size="16px" fill="#1e1e1e" text-anchor="start" style="white-space: pre;" direction="ltr" dominant-baseline="text-before-edge">    if (*symbol == 'X') {</text><text x="0" y="76.8" font-family="Cascadia, Segoe UI Emoji" font-size="16px" fill="#1e1e1e" text-anchor="start" style="white-space: pre;" direction="ltr" dominant-baseline="text-before-edge">        *symbol = '0';</text><text x="0" y="96" font-family="Cascadia, Segoe UI Emoji" font-size="16px" fill="#1e1e1e" text-anchor="start" style="white-space: pre;" direction="ltr" dominant-baseline="text-before-edge">    } else {</text><text x="0" y="115.19999999999999" font-family="Cascadia, Segoe UI Emoji" font-size="16px" fill="#1e1e1e" text-anchor="start" style="white-space: pre;" direction="ltr" dominant-baseline="text-before-edge">        *symbol = 'X';</text><text x="0" y="134.4" font-family="Cascadia, Segoe UI Emoji" font-size="16px" fill="#1e1e1e" text-anchor="start" style="white-space: pre;" direction="ltr" dominant-baseline="text-before-edge">    }</text><text x="0" y="153.6" font-family="Cascadia, Segoe UI Emoji" font-size="16px" fill="#1e1e1e" text-anchor="start" style="white-space: pre;" direction="ltr" dominant-baseline="text-before-edge">}</text></g><g transform="translate(55.50238715278175 917.53342013889) rotate(0 200.39062499999997 129.6)"><text x="0" y="0" font-family="Cascadia, Segoe UI Emoji" font-size="36px" fill="#1e1e1e" text-anchor="start" style="white-space: pre;" direction="ltr" dominant-baseline="text-before-edge"></text><text x="0" y="43.199999999999996" font-family="Cascadia, Segoe UI Emoji" font-size="36px" fill="#1e1e1e" text-anchor="start" style="white-space: pre;" direction="ltr" dominant-baseline="text-before-edge">struct user_input {</text><text x="0" y="86.39999999999999" font-family="Cascadia, Segoe UI Emoji" font-size="36px" fill="#1e1e1e" text-anchor="start" style="white-space: pre;" direction="ltr" dominant-baseline="text-before-edge">    char row;</text><text x="0" y="129.6" font-family="Cascadia, Segoe UI Emoji" font-size="36px" fill="#1e1e1e" text-anchor="start" style="white-space: pre;" direction="ltr" dominant-baseline="text-before-edge">    char col;</text><text x="0" y="172.79999999999998" font-family="Cascadia, Segoe UI Emoji" font-size="36px" fill="#1e1e1e" text-anchor="start" style="white-space: pre;" direction="ltr" dominant-baseline="text-before-edge">};</text><text x="0" y="215.99999999999997" font-family="Cascadia, Segoe UI Emoji" font-size="36px" fill="#1e1e1e" text-anchor="start" style="white-space: pre;" direction="ltr" dominant-baseline="text-before-edge"></text></g><g transform="translate(869.3153211805628 10) rotate(0 28.125000000000057 9.599999999999994)"><text x="0" y="0" font-family="Cascadia, Segoe UI Emoji" font-size="16px" fill="#1971c2" text-anchor="start" style="white-space: pre;" direction="ltr" dominant-baseline="text-before-edge">memory</text></g><g stroke-linecap="round" transform="translate(841.9108072916711 58.15013020833453) rotate(0 2631.7654079861118 51.935763888888914)"><path d="M0.31 0.58 C1194.09 -11, 2388.21 -10.2, 5263.95 -0.52 M-0.22 -0.78 C1934.92 3.13, 3869.17 3.35, 5263.38 0.49 M5264.83 -2.08 C5261.29 30.93, 5265.78 61.88, 5260.3 106.61 M5261.74 -0.13 C5261.59 34.72, 5263.61 66.42, 5262.5 104.91 M5263.13 104.17 C4099.93 111.48, 2936.19 110.17, -0.44 103.11 M5263.66 103.11 C3719.69 106.04, 2175 105.73, 0.68 104.42 M0.03 104.88 C-1.36 69.05, 0.71 32.02, 0.06 3.24 M0.27 105.48 C-2.03 83.06, -0.19 60.68, 0.44 -0.9" stroke="#e03131" stroke-width="1" fill="none"></path></g><g stroke-linecap="round"><g transform="translate(934.8491753472294 63.748003472222706) rotate(0 0.8931008010274581 47.23817068814401)"><path d="M-1.64 -2.93 C1.07 35.78, 2.79 68.79, 2.93 94.89 M-1.86 -0.12 C0.17 27.26, 0.76 56.23, 3.65 97.4" stroke="#e03131" stroke-width="1" fill="none"></path></g></g><mask></mask><g stroke-linecap="round"><g transform="translate(1027.7711787128687 66.670423061858) rotate(0 0.5940701682120562 48.68400657652978)"><path d="M2.89 2.25 C-0.66 38.17, -2.16 74.01, 2.55 98.9 M-1.7 -1.53 C1.12 22.51, 1.7 48.59, 2.54 95.42" stroke="#e03131" stroke-width="1" fill="none"></path></g></g><mask></mask><g stroke-linecap="round"><g transform="translate(1119.8328106573128 64.71729806185812) rotate(0 2.2630748535609655 48.96782125077311)"><path d="M-1.37 1.69 C0.48 17.37, 3.31 38.67, 6.1 93.63 M-1.57 -0.31 C0.86 35.22, 2.42 69.37, 3.31 98.25" stroke="#e03131" stroke-width="1" fill="none"></path></g></g><mask></mask><g stroke-linecap="round"><g transform="translate(1216.523769066987 65.66424245559233) rotate(0 0.4419529656134955 49.11956924117271)"><path d="M-2.43 0.23 C0.93 25.9, 0.52 55.09, 1 98.01 M-1.5 0.25 C0.27 34.56, 3.83 69.94, 3.25 97.21" stroke="#e03131" stroke-width="1" fill="none"></path></g></g><mask></mask><g stroke-linecap="round"><g transform="translate(1308.2500259048484 65.98575058689414) rotate(0 2.3511535908198766 48.72431362151269)"><path d="M1.97 -1.31 C0.64 36, -1.02 71.83, 5.41 96.62 M-0.7 -0.01 C1.44 36.7, 1 72.18, 4.84 98.76" stroke="#e03131" stroke-width="1" fill="none"></path></g></g><mask></mask><g stroke-linecap="round"><g transform="translate(1400.0121786826257 64.16717419800545) rotate(0 3.267091777275823 47.79258722542886)"><path d="M0.68 0.64 C-0.21 30.75, 5.15 59.01, 5.96 93.91 M1.74 0.76 C0.42 30.57, 2.99 62.39, 3.93 94.95" stroke="#e03131" stroke-width="1" fill="none"></path></g></g><mask></mask><g stroke-linecap="round"><g transform="translate(1496.4632101222535 64.11801849725884) rotate(0 1.2615143648451976 48.71254132046465)"><path d="M-3.43 -0.84 C1.77 22.65, 0.08 53.96, 5.96 97.5 M-1.33 1.04 C2.96 26.52, 4.12 51.54, 4.94 98.26" stroke="#e03131" stroke-width="1" fill="none"></path></g></g><mask></mask><g stroke-linecap="round"><g transform="translate(1589.524102376782 67.04043808689414) rotate(0 1.6306940379944308 47.42427507891421)"><path d="M0.21 -3.69 C-2.8 38.39, 3.57 74.93, 1.6 98.06 M1.59 1.07 C1.3 21.21, 1.85 42.41, 3.88 98.54" stroke="#e03131" stroke-width="1" fill="none"></path></g></g><mask></mask><g stroke-linecap="round"><g transform="translate(1681.787557237893 65.22186169800534) rotate(0 0.7984409530861285 48.534015718019646)"><path d="M-2.34 1.22 C3.81 27.69, 0.32 55.29, -0.4 94.26 M1.93 0.7 C4.45 35.43, 4.49 69.83, 2.62 96.37" stroke="#e03131" stroke-width="1" fill="none"></path></g></g><mask></mask><g stroke-linecap="round"><g transform="translate(1777.4845920364555 63.69810296673961) rotate(0 2.0945273907676665 50.33607990956966)"><path d="M2.84 0.59 C-2 21.25, -3.36 37.58, 5.2 100.08 M1.82 1.35 C3.73 35.88, 3.57 67.97, 3.05 95.09" stroke="#e03131" stroke-width="1" fill="none"></path></g></g><mask></mask><g stroke-linecap="round"><g transform="translate(1870.3371509576507 66.6205225563748) rotate(0 1.8764216998488337 50.95389659619991)"><path d="M-1.52 1.15 C-1.11 29.36, 5.52 67.2, 5.27 100.76 M0.76 1.63 C2.3 31.89, 3.78 63.08, 4.05 97.61" stroke="#e03131" stroke-width="1" fill="none"></path></g></g><mask></mask><g stroke-linecap="round"><g transform="translate(1962.398782902094 64.80194616748611) rotate(0 0.5022305837935619 48.94464571691219)"><path d="M-3.52 -2.65 C2.33 33.66, 3.37 64.85, 4.52 100.54 M-0.5 -0.54 C1.81 33.75, 3.96 71.9, 1.39 96.53" stroke="#e03131" stroke-width="1" fill="none"></path></g></g><mask></mask><g stroke-linecap="round"><g transform="translate(2059.0431835741497 68.96272123042019) rotate(0 1.127490763655942 46.87878785385851)"><path d="M-2.82 -1.72 C-0.03 27.67, -1.48 51.36, 4.66 94.02 M-1.51 -1.58 C-0.65 23.81, 0.01 49.16, 5.08 95.48" stroke="#e03131" stroke-width="1" fill="none"></path></g></g><mask></mask><g stroke-linecap="round"><g transform="translate(2151.965186939788 71.67680748672205) rotate(0 0.030327186401564177 47.79058426908318)"><path d="M0.35 2.33 C-2.53 24.05, 1.68 43.76, 1.36 96.62 M-1.31 -1.06 C-2.26 19.72, 1.79 39.02, 1.5 96.65" stroke="#e03131" stroke-width="1" fill="none"></path></g></g><mask></mask><g stroke-linecap="round"><g transform="translate(2244.0268188842324 69.72368248672228) rotate(0 0.019842033377926782 48.94482022813622)"><path d="M-1.91 0.71 C2.51 21.97, 0.02 49.48, -0.54 93.89 M-1.45 -0.53 C1.37 20.01, -1.51 42.59, 1.95 98.42" stroke="#e03131" stroke-width="1" fill="none"></path></g></g><mask></mask><g stroke-linecap="round"><g transform="translate(2339.79329812724 68.19992375545644) rotate(0 0.7105343799871662 46.82498804583315)"><path d="M1.54 -2.89 C-1.57 34.42, -2.35 66.41, -0.04 94.28 M1.95 -1.43 C-2.25 23.67, -1.03 49.36, 2.8 96.54" stroke="#e03131" stroke-width="1" fill="none"></path></g></g><mask></mask><g stroke-linecap="round"><g transform="translate(2432.333357048435 70.99213501175825) rotate(0 0.2585150001330021 48.880443194053214)"><path d="M-1.76 -0.29 C-1.92 27.82, -0.43 59.01, 0.99 94.02 M-1.62 -0.26 C1.58 28.05, 3.28 52.66, 1.67 98.05" stroke="#e03131" stroke-width="1" fill="none"></path></g></g><mask></mask><g stroke-linecap="round"><g transform="translate(2524.4080098262125 69.17355862286956) rotate(0 -0.8036475785904713 48.89986927724544)"><path d="M-3.66 -3.02 C-3.3 19.44, -1.56 41.24, 2.05 100.82 M-1.17 1.51 C-1.18 21.79, -1.59 45.44, 1.33 95.41" stroke="#e03131" stroke-width="1" fill="none"></path></g></g><mask></mask><g stroke-linecap="round"><g transform="translate(2620.85904126584 69.12440292212295) rotate(0 -0.8165720653616972 47.02196834339861)"><path d="M-3.16 -2.63 C-2.99 25.53, -1.01 60.71, 0.26 93.67 M-0.32 -0.37 C-1.69 28.89, -1.13 54.05, 1.53 96.67" stroke="#e03131" stroke-width="1" fill="none"></path></g></g><mask></mask><g stroke-linecap="round"><g transform="translate(2713.919933520369 72.04682251175825) rotate(0 0.3935396122849397 46.32276002421145)"><path d="M-2.13 -2.89 C-1.9 25.71, -2.99 40.32, 2.59 94.57 M-1.45 1.14 C-0.93 34.92, 0.44 72.58, 2.92 95.54" stroke="#e03131" stroke-width="1" fill="none"></path></g></g><mask></mask><g stroke-linecap="round"><g transform="translate(2805.9815654648132 70.22824612286945) rotate(0 2.1615083253980174 48.02262169412438)"><path d="M-1.07 3.91 C-3.16 19.52, -0.1 43.12, 6.15 96.27 M-1.79 -1.5 C-2.12 27.02, 0.15 53.19, 2.88 97.54" stroke="#e03131" stroke-width="1" fill="none"></path></g></g><mask></mask><g stroke-linecap="round"><g transform="translate(2901.886933596709 68.70448739160372) rotate(0 0.2975218939698152 47.45147923483614)"><path d="M-2.86 -3.24 C-0.33 19.67, 3.93 43.42, 2.39 94.01 M-1.59 -0.24 C-0.83 33.27, 0.25 69.86, 3.45 98.14" stroke="#e03131" stroke-width="1" fill="none"></path></g></g><mask></mask><g stroke-linecap="round"><g transform="translate(2994.6450914762377 71.6269069812389) rotate(0 2.435245215064924 47.2558471943355)"><path d="M-0.53 -2.34 C2.88 37.95, 0.36 74.24, 5.4 93.32 M-0.2 -1.37 C-1.08 22.46, 0.2 44.88, 3.16 96.85" stroke="#e03131" stroke-width="1" fill="none"></path></g></g><mask></mask><g stroke-linecap="round"><g transform="translate(3087.009457795681 69.80833059235022) rotate(0 2.3280692204004936 47.36401955141787)"><path d="M3.03 -0.64 C-0.31 18.37, 3.39 38.92, 0.13 93.73 M-0.24 0.63 C1.03 29.19, 1.63 55.82, 4.89 95.37" stroke="#e03131" stroke-width="1" fill="none"></path></g></g><mask></mask><g transform="translate(877.7680121527861 177.25494791666466) rotate(0 1884.375 9.599999999999994)"><text x="0" y="0" font-family="Cascadia, Segoe UI Emoji" font-size="16px" fill="#e03131" text-anchor="start" style="white-space: pre;" direction="ltr" dominant-baseline="text-before-edge">0         1         2         3         4         5         6         7        8         9          10       11        12        13         14      15         16        17      18         19         20        21        22        23         24       25         26      27         28         29       30        31        32        33        34        35        36        37       38         39        40 </text></g><g stroke-linecap="round"><g transform="translate(3186.896198761709 65.87605759388163) rotate(0 0.06902783454802375 46.34088128722374)"><path d="M-1.04 -3.58 C-1.92 18.91, -3.46 38.94, 1.7 96.26 M1.95 0.07 C-1.72 33.26, 1.63 66.69, 2.1 95.44" stroke="#e03131" stroke-width="1" fill="none"></path></g></g><mask></mask><g stroke-linecap="round"><g transform="translate(3279.8182021273483 68.79847718351704) rotate(0 1.4811480082810249 47.36585760592584)"><path d="M-1.74 -0.85 C-3.2 37.47, 0.53 75.54, 5.03 93.51 M-1.16 -0.43 C3.93 28.27, 2.73 56.44, 1.94 95.59" stroke="#e03131" stroke-width="1" fill="none"></path></g></g><mask></mask><g stroke-linecap="round"><g transform="translate(3371.8798340717926 66.84535218351704) rotate(0 0.2721310640788488 50.06360257147912)"><path d="M-3.92 -0.65 C-1.61 19.76, 2.37 37.41, 3.07 100.81 M1.11 -0.68 C-1.2 27.96, -0.41 57.52, 4.46 96.27" stroke="#e03131" stroke-width="1" fill="none"></path></g></g><mask></mask><g stroke-linecap="round"><g transform="translate(3467.4379799814665 65.3215934522513) rotate(0 0.9229806206292324 46.81574357590739)"><path d="M-1.42 -0.65 C0.88 23.61, -0.21 57.91, 3.26 94.59 M-1.02 -1.47 C0.77 25.69, 4.16 53.38, 2.79 95.1" stroke="#e03131" stroke-width="1" fill="none"></path></g></g><mask></mask><g stroke-linecap="round"><g transform="translate(3560.2970493193275 68.11380470855312) rotate(0 1.7177880435353927 47.86708158171837)"><path d="M1.9 -3.4 C0.15 31.41, 1.23 52.68, 2.26 99.13 M-1.18 -1.32 C1.18 25.18, 0.34 49.77, 4.62 95.56" stroke="#e03131" stroke-width="1" fill="none"></path></g></g><mask></mask><g stroke-linecap="round"><g transform="translate(3652.059202097105 66.29522831966443) rotate(0 1.132431903026145 49.12416161141459)"><path d="M-0.05 3.9 C1.95 25.24, 1.84 57.29, 1.76 94.86 M1.34 -0.64 C-0.77 20.18, 1.76 42.58, 2.31 98.89" stroke="#e03131" stroke-width="1" fill="none"></path></g></g><mask></mask><g stroke-linecap="round"><g transform="translate(3748.5102335367324 66.24607261891782) rotate(0 1.3647800116903 46.80968076466684)"><path d="M0.14 -2.32 C-0.21 23, -0.05 39.57, 0.18 94.55 M-0.33 -1.81 C3.52 21.33, 1.95 47.32, 3.06 95.94" stroke="#e03131" stroke-width="1" fill="none"></path></g></g><mask></mask><g stroke-linecap="round"><g transform="translate(3841.5711257912603 69.16849220855312) rotate(0 1.0598266507602148 49.12116092919473)"><path d="M-0.86 2.22 C-0.06 36.51, -0.39 74.72, 0.47 99.59 M1.49 -1.35 C-0.29 28.02, 1.29 51.06, 2.98 95.11" stroke="#e03131" stroke-width="1" fill="none"></path></g></g><mask></mask><g stroke-linecap="round"><g transform="translate(3933.8345806523716 67.34991581966432) rotate(0 0.04305225317875738 48.036806051722806)"><path d="M-1.36 -2.05 C-2.6 21.05, -1.55 49.53, 1.85 96.25 M-0.81 1.98 C2.04 19.39, 2.61 38.87, 1.23 98.12" stroke="#e03131" stroke-width="1" fill="none"></path></g></g><mask></mask><g stroke-linecap="round"><g transform="translate(4029.531615450937 65.82615708839859) rotate(0 -0.3754418705484568 48.7697774759597)"><path d="M-2.94 -2.36 C-2.2 37.17, 0.28 68.29, -0.49 99.9 M-0.06 -0.97 C-0.2 20.67, -1.22 46.23, 2.19 96" stroke="#e03131" stroke-width="1" fill="none"></path></g></g><mask></mask><g stroke-linecap="round"><g transform="translate(4122.38417437213 68.74857667803377) rotate(0 -0.5663856481096445 47.52750612340037)"><path d="M-2.65 2.68 C-1.92 23.49, -3.49 51.25, 0.42 95.29 M-0.14 -1.8 C-0.7 39.89, 1.5 76.41, 1.51 96.86" stroke="#e03131" stroke-width="1" fill="none"></path></g></g><mask></mask><g stroke-linecap="round"><g transform="translate(4214.445806316575 66.93000028914508) rotate(0 2.263576305217157 48.594825868598264)"><path d="M-1.27 -0.66 C-4.14 26.3, -2.48 45.05, 7.07 96.79 M-1.89 1.21 C-0.28 23.53, -0.18 48.78, 4.3 97.85" stroke="#e03131" stroke-width="1" fill="none"></path></g></g><mask></mask><g stroke-linecap="round"><g transform="translate(4311.090206988629 71.09077535207922) rotate(0 -0.20086147532674659 48.03568459591929)"><path d="M-3.61 2.99 C-2.17 33.96, 5.62 71.03, 1.19 96.62 M-0.93 -0.91 C-2.78 20.24, 0.66 41.56, 3.21 96.99" stroke="#e03131" stroke-width="1" fill="none"></path></g></g><mask></mask><g stroke-linecap="round"><g transform="translate(4404.012210354267 73.80486160838103) rotate(0 0.9453281547048391 47.707491164199155)"><path d="M-2.7 -1.62 C3.08 27.3, -1.92 54.6, -0.49 93.14 M-1.61 -0.05 C1.41 35.91, 1.44 69.99, 4.59 97.03" stroke="#e03131" stroke-width="1" fill="none"></path></g></g><mask></mask><g stroke-linecap="round"><g transform="translate(4496.073842298711 71.85173660838126) rotate(0 2.4896556331482316 48.634640042773526)"><path d="M3.95 -0.12 C-2.07 36.05, -2.58 68.89, 5.54 95.05 M1.18 0.94 C-0.67 24.72, 1.5 49.41, 2.58 97.39" stroke="#e03131" stroke-width="1" fill="none"></path></g></g><mask></mask><g stroke-linecap="round"><g transform="translate(4591.840321541718 70.32797787711542) rotate(0 0.4851092867188527 48.835773830405515)"><path d="M-1.93 -0.29 C-0.88 21.38, 5.96 48.45, 1.29 93.7 M0.09 0.08 C3.54 28.92, 2.46 58.11, 1.27 97.96" stroke="#e03131" stroke-width="1" fill="none"></path></g></g><mask></mask><g stroke-linecap="round"><g transform="translate(4684.478036712913 73.12018913341723) rotate(0 0.5982029224851431 47.74963754332725)"><path d="M-3.61 -3.77 C2.41 26.93, -0.91 54.35, 3.02 99.27 M1.47 0.12 C0.63 34.11, 0.41 68.32, 4.81 95.02" stroke="#e03131" stroke-width="1" fill="none"></path></g></g><mask></mask><g stroke-linecap="round"><g transform="translate(4776.455033240691 71.30161274452854) rotate(0 2.2317129160383047 47.62859964846734)"><path d="M2.42 -1.86 C-2.66 25.22, -0.02 59.17, 5 97.09 M-0.54 0.48 C0.52 30.49, 5 56.99, 3.51 97.12" stroke="#e03131" stroke-width="1" fill="none"></path></g></g><mask></mask><g stroke-linecap="round"><g transform="translate(4872.906064680319 71.25245704378193) rotate(0 1.0833254485496582 48.31573146498863)"><path d="M-1.83 -3.21 C1.72 22.32, 4.34 40.08, 3.27 99.84 M-1.85 1.05 C2.12 27.77, 1.77 59.53, 4.02 96.9" stroke="#e03131" stroke-width="1" fill="none"></path></g></g><mask></mask><g stroke-linecap="round"><g transform="translate(4965.966956934846 74.17487663341723) rotate(0 1.6474266435125173 46.97062987565164)"><path d="M-0.1 2.36 C1.79 24.8, 0.85 52.13, 3.37 95.83 M1.69 -1.89 C-0.39 31.57, 1.13 62.75, 3.39 95.05" stroke="#e03131" stroke-width="1" fill="none"></path></g></g><mask></mask><g stroke-linecap="round"><g transform="translate(5055.606713879291 67.59067524452843) rotate(0 2.2343629981496633 48.140852634898465)"><path d="M1.88 0.18 C0.79 24.19, 1.57 41.46, 4.08 93.21 M0.39 0.21 C3.63 34.21, 4.11 66.51, 3.27 96.1" stroke="#e03131" stroke-width="1" fill="none"></path></g></g><mask></mask><g stroke-linecap="round"><g transform="translate(5153.933957011184 70.8325415132627) rotate(0 2.6862056992122234 50.135171239367764)"><path d="M0.15 2.93 C2.28 33.71, 4.11 65.89, 5.22 100.28 M0.9 -0.01 C1.29 18.06, 1.81 39.04, 3.96 96.36" stroke="#e03131" stroke-width="1" fill="none"></path></g></g><mask></mask><g stroke-linecap="round"><g transform="translate(5246.994849265713 73.75496110289788) rotate(0 1.1313597098287573 47.91110361098413)"><path d="M0.25 -1.08 C1.98 25.77, 4.07 62.36, -0.65 97.69 M0.27 -1.86 C1.99 29.26, 3.65 59.59, 2.58 95.76" stroke="#e03131" stroke-width="1" fill="none"></path></g></g><mask></mask><g stroke-linecap="round"><g transform="translate(5339.056481210157 71.9363847140092) rotate(0 1.8420412327268423 47.500852285987776)"><path d="M0.96 -3.7 C3.38 39.57, -1.32 73.16, 3.53 98.7 M0.15 -0.81 C2.04 28.53, 1.59 56.96, 3.18 97.73" stroke="#e03131" stroke-width="1" fill="none"></path></g></g><mask></mask><g transform="translate(276.3096788194562 640.5557291666623) rotate(0 0 -0.3841145833333144)" stroke="none"><path fill="#1971c2" d="M 2.12,-0.66 Q 2.12,-0.66 2.15,-0.13 2.18,0.40 1.96,0.88 1.74,1.36 1.32,1.69 0.91,2.02 0.38,2.12 -0.13,2.21 -0.64,2.05 -1.14,1.90 -1.52,1.52 -1.90,1.14 -2.05,0.64 -2.21,0.13 -2.12,-0.38 -2.02,-0.91 -1.69,-1.32 -1.36,-1.74 -0.88,-1.96 -0.39,-2.18 0.13,-2.15 0.66,-2.11 1.11,-1.84 1.57,-1.56 1.84,-1.11 L 2.12,-0.66 Z"></path></g><g transform="translate(62.807074652789595 657.8994791666623) rotate(0 -0.7682291666666856 -1.4973958333333428)" stroke="none"><path fill="#1971c2" d="M -2.08,1.06 Q -2.08,1.06 -2.13,1.09 -2.17,1.11 -2.28,0.84 -2.38,0.56 -2.41,0.27 -2.44,-0.02 -2.41,-0.31 -2.37,-0.60 -2.26,-0.88 -2.15,-1.15 -1.98,-1.39 -1.81,-1.64 -1.59,-1.83 -1.37,-2.02 -1.10,-2.16 -0.84,-2.29 -0.55,-2.36 -0.27,-2.43 0.02,-2.43 0.31,-2.42 0.60,-2.35 0.88,-2.28 1.14,-2.14 1.40,-2.00 1.62,-1.80 1.84,-1.60 2.01,-1.36 2.17,-1.11 2.30,-0.74 2.42,-0.36 2.41,0.03 2.41,0.42 2.27,0.80 2.14,1.17 1.90,1.48 1.65,1.80 1.32,2.01 0.99,2.23 0.61,2.33 0.23,2.43 -0.16,2.41 -0.55,2.38 -0.92,2.23 -1.29,2.08 -1.58,1.82 -1.88,1.55 -2.08,1.21 -2.28,0.87 -2.36,0.48 -2.44,0.09 -2.39,-0.29 -2.35,-0.68 -2.17,-1.04 -2.00,-1.40 -1.73,-1.68 -1.45,-1.96 -1.10,-2.15 -0.75,-2.33 -0.35,-2.38 0.03,-2.44 0.42,-2.37 0.81,-2.30 1.16,-2.11 1.50,-1.92 1.77,-1.63 2.04,-1.34 2.20,-0.98 2.36,-0.62 2.40,-0.22 2.44,0.16 2.35,0.55 2.26,0.93 2.05,1.27 1.84,1.61 1.53,1.86 1.23,2.11 0.86,2.25 0.49,2.39 0.09,2.41 -0.29,2.43 -0.67,2.31 -1.05,2.20 -1.38,1.98 -1.70,1.75 -1.94,1.43 -2.17,1.11 -2.17,1.11 -2.17,1.11 -2.28,0.84 -2.38,0.56 -2.41,0.27 -2.44,-0.02 -2.41,-0.31 -2.37,-0.60 -2.26,-0.88 -2.15,-1.15 -1.98,-1.39 -1.81,-1.64 -1.59,-1.83 -1.37,-2.02 -1.10,-2.16 -0.84,-2.29 -0.55,-2.36 -0.27,-2.43 0.02,-2.43 0.31,-2.42 0.60,-2.35 0.88,-2.28 1.14,-2.14 1.40,-2.00 1.62,-1.80 1.84,-1.60 2.01,-1.36 2.17,-1.11 2.13,-1.09 2.08,-1.06 2.18,-0.80 2.27,-0.53 2.30,-0.25 2.34,0.02 2.30,0.30 2.26,0.58 2.16,0.84 2.06,1.10 1.90,1.33 1.73,1.56 1.52,1.75 1.31,1.93 1.06,2.06 0.80,2.19 0.53,2.26 0.26,2.32 -0.02,2.32 -0.30,2.32 -0.57,2.25 -0.85,2.18 -1.09,2.04 -1.34,1.91 -1.55,1.72 -1.76,1.53 -1.92,1.30 -2.08,1.06 -2.08,1.06 L -2.08,1.06 Z"></path></g><g transform="translate(57.50759548612285 654.136458333329) rotate(0 2.8743489583333712 86.92382812499997)" stroke="none"><path fill="#1971c2" d="M -2.09,1.55 Q -2.09,1.55 -2.76,0.70 -3.42,-0.14 -4.10,-1.65 -4.78,-3.16 -4.70,-4.27 -4.61,-5.38 -4.63,-5.03 -4.65,-4.69 -4.65,-5.04 -4.65,-5.40 -4.56,-5.74 -4.48,-6.08 -4.31,-6.39 -4.15,-6.70 -3.91,-6.96 -3.68,-7.22 -3.39,-7.42 -3.10,-7.62 -2.77,-7.74 -2.44,-7.87 -2.09,-7.91 -1.74,-7.95 -1.39,-7.90 -1.04,-7.86 -0.71,-7.73 -0.39,-7.61 -0.10,-7.41 0.18,-7.20 0.41,-6.94 0.65,-6.68 0.81,-6.36 0.97,-6.05 1.05,-5.71 1.13,-5.37 1.72,-3.88 2.31,-2.40 2.45,-0.76 2.58,0.87 2.86,3.64 3.13,6.40 3.19,10.04 3.25,13.68 3.21,17.43 3.17,21.19 3.69,25.63 4.21,30.07 4.42,35.78 4.62,41.49 4.68,47.97 4.74,54.44 5.38,61.92 6.02,69.40 6.29,78.53 6.55,87.67 7.30,97.02 8.05,106.37 9.01,120.69 9.96,135.00 10.36,144.80 10.76,154.59 10.93,162.45 11.09,170.31 11.73,176.19 12.38,182.06 12.65,186.48 12.92,190.90 13.04,194.65 13.16,198.40 13.20,201.14 13.25,203.87 13.31,205.81 13.38,207.75 13.50,208.84 13.62,209.92 13.49,210.32 13.36,210.72 13.34,210.94 13.31,211.16 13.24,211.36 13.16,211.57 13.04,211.75 12.92,211.93 12.76,212.07 12.59,212.22 12.40,212.32 12.21,212.43 12.00,212.48 11.79,212.53 11.57,212.54 11.35,212.54 11.14,212.49 10.93,212.44 10.73,212.34 10.54,212.24 10.37,212.09 10.21,211.95 10.08,211.77 9.96,211.59 9.88,211.39 9.80,211.19 9.77,210.97 9.74,210.76 9.29,208.24 8.83,205.73 7.96,202.28 7.10,198.83 6.72,193.84 6.33,188.85 6.19,182.32 6.04,175.79 5.36,164.20 4.67,152.61 3.74,142.54 2.81,132.47 2.42,122.62 2.02,112.76 0.88,102.75 -0.25,92.74 -0.74,83.26 -1.23,73.78 -2.40,64.30 -3.58,54.81 -4.08,44.82 -4.59,34.83 -5.44,25.47 -6.30,16.11 -6.67,4.69 -7.03,-6.72 -7.19,-13.79 -7.34,-20.87 -7.41,-25.02 -7.47,-29.17 -7.50,-31.35 -7.53,-33.54 -7.43,-35.08 -7.33,-36.62 -5.48,-37.16 -3.64,-37.70 -1.68,-36.10 0.27,-34.51 0.74,-32.58 1.20,-30.64 1.75,-25.45 2.29,-20.25 2.49,-13.57 2.69,-6.88 2.74,0.73 2.79,8.36 2.14,17.17 1.49,25.99 1.20,35.20 0.91,44.41 0.78,54.58 0.64,64.75 0.58,75.70 0.51,86.64 0.48,97.55 0.45,108.46 0.43,118.25 0.41,128.04 0.40,138.49 0.39,148.94 0.38,155.25 0.37,161.56 0.37,165.02 0.37,168.48 0.45,170.16 0.53,171.84 0.86,172.57 1.18,173.30 1.16,173.50 1.13,173.71 1.06,173.90 0.99,174.09 0.87,174.26 0.75,174.43 0.60,174.57 0.44,174.71 0.26,174.80 0.08,174.90 -0.11,174.95 -0.31,175.00 -0.52,175.00 -0.73,175.00 -0.93,174.95 -1.13,174.90 -1.31,174.80 -1.49,174.71 -1.65,174.57 -1.80,174.43 -1.92,174.26 -2.04,174.09 -2.11,173.90 -2.18,173.71 -2.21,173.50 -2.23,173.30 -2.14,172.03 -2.05,170.77 -1.34,162.87 -0.63,154.97 -0.31,142.07 -0.00,129.18 0.23,119.61 0.47,110.05 0.51,109.81 0.55,109.58 0.67,109.37 0.78,109.16 0.96,109.00 1.14,108.85 1.35,108.75 1.57,108.65 1.81,108.63 2.05,108.61 2.28,108.67 2.51,108.73 2.71,108.85 2.91,108.98 3.06,109.16 3.21,109.35 3.29,109.57 3.38,109.79 3.39,110.03 3.39,110.27 3.32,110.50 3.26,110.73 3.12,110.92 2.98,111.11 2.79,111.25 2.60,111.39 2.37,111.46 2.14,111.54 1.90,111.53 1.67,111.53 1.44,111.44 1.22,111.36 1.03,111.22 0.85,111.07 0.72,110.87 0.59,110.67 0.53,110.44 0.47,110.21 0.49,109.97 0.51,109.73 0.60,109.51 0.69,109.29 0.85,109.12 1.01,108.94 1.21,108.82 1.42,108.70 1.65,108.66 1.89,108.61 2.12,108.64 2.36,108.67 2.57,108.78 2.79,108.88 2.96,109.05 3.12,109.22 3.23,109.43 3.34,109.64 3.37,109.88 3.41,110.11 3.41,110.11 3.41,110.11 3.23,119.68 3.05,129.25 2.81,142.24 2.57,155.23 1.97,163.14 1.37,171.04 1.28,172.17 1.18,173.30 1.16,173.50 1.13,173.71 1.06,173.90 0.99,174.09 0.87,174.26 0.75,174.43 0.60,174.57 0.44,174.71 0.26,174.80 0.08,174.90 -0.11,174.95 -0.31,175.00 -0.52,175.00 -0.73,175.00 -0.93,174.95 -1.13,174.90 -1.31,174.80 -1.49,174.71 -1.65,174.57 -1.80,174.43 -1.92,174.26 -2.04,174.09 -2.11,173.90 -2.18,173.71 -2.21,173.50 -2.23,173.30 -2.34,172.59 -2.45,171.88 -2.37,170.18 -2.29,168.48 -2.29,165.02 -2.30,161.56 -2.30,155.25 -2.30,148.94 -2.31,138.49 -2.31,128.04 -2.31,118.24 -2.31,108.45 -2.31,97.54 -2.30,86.63 -2.28,75.68 -2.25,64.72 -2.16,54.53 -2.08,44.33 -1.86,35.05 -1.64,25.78 -1.09,17.09 -0.54,8.41 -0.72,0.83 -0.90,-6.73 -1.26,-13.24 -1.62,-19.75 -2.38,-24.79 -3.14,-29.83 -3.25,-30.96 -3.36,-32.10 -4.13,-32.84 -4.89,-33.57 -4.87,-31.39 -4.84,-29.21 -4.77,-25.07 -4.70,-20.93 -4.55,-13.86 -4.39,-6.80 -4.03,4.53 -3.66,15.87 -2.80,25.28 -1.94,34.69 -1.43,44.59 -0.93,54.48 0.25,64.06 1.44,73.64 1.93,83.04 2.42,92.43 3.59,102.54 4.75,112.65 5.16,122.43 5.57,132.21 6.53,142.32 7.49,152.44 8.22,164.07 8.94,175.71 9.13,182.16 9.32,188.61 9.73,193.33 10.14,198.05 11.15,201.77 12.15,205.50 12.76,208.11 13.36,210.72 13.34,210.94 13.31,211.16 13.24,211.36 13.16,211.57 13.04,211.75 12.92,211.93 12.76,212.07 12.59,212.22 12.40,212.32 12.21,212.43 12.00,212.48 11.79,212.53 11.57,212.54 11.35,212.54 11.14,212.49 10.93,212.44 10.73,212.34 10.54,212.24 10.37,212.09 10.21,211.95 10.08,211.77 9.96,211.59 9.88,211.39 9.80,211.19 9.77,210.97 9.74,210.76 10.15,209.27 10.56,207.79 10.58,205.85 10.60,203.92 10.55,201.20 10.50,198.49 10.38,194.78 10.26,191.07 9.98,186.71 9.70,182.36 9.04,176.37 8.38,170.38 8.20,162.54 8.02,154.71 7.59,144.95 7.17,135.19 6.19,120.90 5.21,106.61 4.41,97.19 3.62,87.76 3.30,78.72 2.98,69.67 2.25,62.09 1.52,54.50 1.35,48.08 1.18,41.65 0.85,36.11 0.51,30.58 -0.22,25.94 -0.96,21.29 -1.18,17.63 -1.40,13.97 -1.78,10.64 -2.15,7.31 -2.90,4.20 -3.64,1.08 -3.61,-0.31 -3.57,-1.71 -4.11,-3.20 -4.65,-4.69 -4.65,-5.04 -4.65,-5.39 -4.56,-5.74 -4.48,-6.08 -4.31,-6.39 -4.15,-6.70 -3.91,-6.96 -3.68,-7.22 -3.39,-7.42 -3.10,-7.62 -2.77,-7.74 -2.44,-7.87 -2.09,-7.91 -1.74,-7.95 -1.39,-7.90 -1.04,-7.86 -0.71,-7.73 -0.39,-7.61 -0.10,-7.41 0.18,-7.20 0.41,-6.94 0.65,-6.68 0.81,-6.36 0.97,-6.05 1.05,-5.71 1.13,-5.37 1.00,-4.33 0.86,-3.30 1.48,-2.43 2.09,-1.55 2.25,-1.28 2.40,-1.01 2.49,-0.70 2.58,-0.40 2.59,-0.09 2.60,0.22 2.53,0.53 2.47,0.83 2.33,1.12 2.20,1.40 1.99,1.65 1.79,1.89 1.54,2.08 1.29,2.26 1.00,2.39 0.71,2.51 0.40,2.56 0.09,2.61 -0.22,2.58 -0.53,2.55 -0.83,2.45 -1.13,2.35 -1.39,2.18 -1.66,2.01 -1.87,1.78 -2.09,1.55 -2.09,1.55 L -2.09,1.55 Z"></path></g><g transform="translate(230.46983506945588 825.4613281249956) rotate(0 0.00004999999998744897 0.00004999999998744897)" stroke="none"><path fill="#1971c2" d="M 1.57,-1.57 Q 1.57,-1.57 1.77,-1.27 1.98,-0.98 2.09,-0.64 2.20,-0.29 2.19,0.05 2.18,0.41 2.05,0.75 1.93,1.09 1.70,1.37 1.48,1.65 1.18,1.84 0.87,2.04 0.52,2.12 0.18,2.21 -0.17,2.18 -0.53,2.15 -0.86,2.01 -1.19,1.87 -1.46,1.63 -1.73,1.39 -1.90,1.07 -2.08,0.76 -2.15,0.41 -2.21,0.05 -2.17,-0.29 -2.12,-0.65 -1.96,-0.97 -1.80,-1.29 -1.54,-1.54 -1.29,-1.80 -0.97,-1.96 -0.65,-2.12 -0.29,-2.17 0.06,-2.21 0.41,-2.15 0.76,-2.08 1.07,-1.90 1.39,-1.73 1.63,-1.46 1.87,-1.19 2.01,-0.86 2.15,-0.53 2.18,-0.17 2.21,0.18 2.12,0.52 2.03,0.87 1.84,1.18 1.65,1.48 1.37,1.70 1.09,1.93 0.75,2.05 0.41,2.18 0.05,2.19 -0.30,2.20 -0.64,2.09 -0.98,1.98 -1.27,1.77 -1.57,1.56 -1.57,1.57 -1.57,1.57 -1.73,1.35 -1.90,1.14 -2.01,0.90 -2.12,0.66 -2.16,0.39 -2.21,0.13 -2.20,-0.13 -2.18,-0.40 -2.10,-0.65 -2.02,-0.91 -1.88,-1.14 -1.74,-1.36 -1.55,-1.55 -1.36,-1.74 -1.14,-1.88 -0.91,-2.02 -0.65,-2.10 -0.40,-2.18 -0.13,-2.20 0.13,-2.21 0.39,-2.16 0.66,-2.12 0.90,-2.01 1.14,-1.90 1.35,-1.73 1.57,-1.57 1.57,-1.57 L 1.57,-1.57 Z"></path></g><g transform="translate(2640.6976996527887 95.458072916665) rotate(0 400.78125 21.599999999999994)"><text x="0" y="0" font-family="Cascadia, Segoe UI Emoji" font-size="36px" fill="#1971c2" text-anchor="start" style="white-space: pre;" direction="ltr" dominant-baseline="text-before-edge">88  45   45   45  45  45   45  45   45</text></g><g stroke-linecap="round"><g transform="translate(2217.338324652794 620.2171874999971) rotate(0 205.10634539624039 -228.1532009889682)"><path d="M-1.37 -0.15 C89.95 -101.11, 182.36 -204.5, 411.59 -456.15 M-0.28 -0.27 C121.41 -135.12, 243.81 -272, 409.83 -455.01" stroke="#1971c2" stroke-width="1" fill="none"></path></g><g transform="translate(2217.338324652794 620.2171874999971) rotate(0 205.10634539624039 -228.1532009889682)"><path d="M395.09 -427.6 C402.5 -432.29, 404.09 -439.68, 412.41 -456.8 M397.84 -427.88 C402.73 -434.18, 404.75 -443.74, 408.02 -453.93" stroke="#1971c2" stroke-width="1" fill="none"></path></g><g transform="translate(2217.338324652794 620.2171874999971) rotate(0 205.10634539624039 -228.1532009889682)"><path d="M379.87 -441.37 C391 -442.81, 396.03 -447.09, 412.41 -456.8 M382.62 -441.65 C392.22 -443.76, 398.79 -449.19, 408.02 -453.93" stroke="#1971c2" stroke-width="1" fill="none"></path></g></g><mask></mask><g stroke-linecap="round"><g transform="translate(2116.7003038194607 569.5010416666637) rotate(0 -284.43195071022035 -196.99961979712046)"><path d="M-0.27 1.55 C-166.9 -113.13, -332.68 -229.18, -568.96 -395.32 M0.09 -0.68 C-160.42 -114.35, -320.29 -226.46, -567.94 -395.55" stroke="#1971c2" stroke-width="1" fill="none"></path></g><g transform="translate(2116.7003038194607 569.5010416666637) rotate(0 -284.43195071022035 -196.99961979712046)"><path d="M-539.56 -384.18 C-549.47 -392.17, -556.34 -395.01, -571.01 -396.53 M-538.66 -389.76 C-545.97 -388.93, -553.72 -393.01, -568.46 -397.1" stroke="#1971c2" stroke-width="1" fill="none"></path></g><g transform="translate(2116.7003038194607 569.5010416666637) rotate(0 -284.43195071022035 -196.99961979712046)"><path d="M-551.18 -367.26 C-557.64 -380.4, -561.1 -388.2, -571.01 -396.53 M-550.27 -372.84 C-554.4 -376.59, -558.88 -385.44, -568.46 -397.1" stroke="#1971c2" stroke-width="1" fill="none"></path></g></g><mask></mask><g transform="translate(1519.1221788194607 89.7126302083305) rotate(0 21.09375 21.599999999999994)"><text x="0" y="0" font-family="Cascadia, Segoe UI Emoji" font-size="36px" fill="#1971c2" text-anchor="start" style="white-space: pre;" direction="ltr" dominant-baseline="text-before-edge">88</text></g><g transform="translate(3769.6234809027933 94.04687499999517) rotate(0 400.78125 21.599999999999994)"><text x="0" y="0" font-family="Cascadia, Segoe UI Emoji" font-size="36px" fill="#1971c2" text-anchor="start" style="white-space: pre;" direction="ltr" dominant-baseline="text-before-edge">45  90   45   45  45  45   45  45   45</text></g><g transform="translate(1060.622829861125 96.18541666666243) rotate(0 63.28125 21.599999999999994)"><text x="0" y="0" font-family="Cascadia, Segoe UI Emoji" font-size="36px" fill="#2f9e44" text-anchor="start" style="white-space: pre;" direction="ltr" dominant-baseline="text-before-edge">65  49</text></g><g transform="translate(1235.7595486111252 91.30768229166245) rotate(0 21.09375 21.599999999999994)"><text x="0" y="0" font-family="Cascadia, Segoe UI Emoji" font-size="36px" fill="#2f9e44" text-anchor="start" style="white-space: pre;" direction="ltr" dominant-baseline="text-before-edge">88</text></g><g stroke-linecap="round"><g transform="translate(1849.6755642361247 510.3213541666622) rotate(0 -233.73497519351508 -161.4792676955461)"><path d="M0.31 -0.22 C-126.45 -89.75, -250.77 -176.1, -468 -322.74 M0.53 -0.48 C-125.38 -84.25, -250.08 -170, -466.59 -322.7" stroke="#2f9e44" stroke-width="1" fill="none"></path></g><g transform="translate(1849.6755642361247 510.3213541666622) rotate(0 -233.73497519351508 -161.4792676955461)"><path d="M-436.85 -315.45 C-449.33 -319.22, -454.18 -320.1, -469.56 -322.04 M-436.3 -316.1 C-443.46 -315.5, -453.5 -317.87, -466.03 -321.94" stroke="#2f9e44" stroke-width="1" fill="none"></path></g><g transform="translate(1849.6755642361247 510.3213541666622) rotate(0 -233.73497519351508 -161.4792676955461)"><path d="M-448.64 -298.65 C-457.87 -306.8, -459.54 -312.19, -469.56 -322.04 M-448.08 -299.31 C-452.44 -303.21, -459.35 -310.03, -466.03 -321.94" stroke="#2f9e44" stroke-width="1" fill="none"></path></g></g><mask></mask><g stroke-linecap="round"><g transform="translate(1561.755642361125 540.5361979166622) rotate(0 -202.29799305265215 -180.2641228921711)"><path d="M-1.48 -0.35 C-119.29 -107.34, -239.58 -215.34, -404.39 -361.13 M-0.2 0.6 C-97.22 -86.23, -195.09 -173.83, -404.39 -360.41" stroke="#2f9e44" stroke-width="1" fill="none"></path></g><g transform="translate(1561.755642361125 540.5361979166622) rotate(0 -202.29799305265215 -180.2641228921711)"><path d="M-380.23 -350.17 C-384.52 -352.54, -394.24 -359.88, -403.37 -363.9 M-377.03 -347.79 C-383.54 -350.77, -389.49 -354.27, -403.37 -362.09" stroke="#2f9e44" stroke-width="1" fill="none"></path></g><g transform="translate(1561.755642361125 540.5361979166622) rotate(0 -202.29799305265215 -180.2641228921711)"><path d="M-393.89 -334.85 C-394.11 -341.66, -399.78 -353.54, -403.37 -363.9 M-390.69 -332.48 C-393.77 -339.22, -396.4 -346.43, -403.37 -362.09" stroke="#2f9e44" stroke-width="1" fill="none"></path></g></g><mask></mask><g transform="translate(2007.6462673611245 100.05924479166237) rotate(0 63.28125 21.599999999999994)"><text x="0" y="0" font-family="Cascadia, Segoe UI Emoji" font-size="36px" fill="#2f9e44" text-anchor="start" style="white-space: pre;" direction="ltr" dominant-baseline="text-before-edge">97  49</text></g><g stroke-linecap="round"><g transform="translate(772.409939236125 1391.7080729166623) rotate(0 945.4181943781672 -601.9347250208257)"><path d="M-0.28 -0.1 C456.23 -305.25, 914.8 -596.11, 1889.18 -1203.79 M-0.2 0.08 C522.71 -337.65, 1041.6 -668.8, 1891.12 -1203.95" stroke="#f08c00" stroke-width="1" fill="none"></path></g><g transform="translate(772.409939236125 1391.7080729166623) rotate(0 945.4181943781672 -601.9347250208257)"><path d="M1872.06 -1180.49 C1874.78 -1188.42, 1883.58 -1194.36, 1887.83 -1205.04 M1872.26 -1180.01 C1876.17 -1185.29, 1883.2 -1195.21, 1892.67 -1205.44" stroke="#f08c00" stroke-width="1" fill="none"></path></g><g transform="translate(772.409939236125 1391.7080729166623) rotate(0 945.4181943781672 -601.9347250208257)"><path d="M1861.1 -1197.84 C1866.45 -1201.77, 1877.91 -1203.52, 1887.83 -1205.04 M1861.3 -1197.36 C1868.02 -1198.01, 1878.05 -1203.17, 1892.67 -1205.44" stroke="#f08c00" stroke-width="1" fill="none"></path></g></g><mask></mask><g transform="translate(1058.386501736125 1198.2803385416623) rotate(0 21.09375 21.600000000000023)"><text x="0" y="0" font-family="Cascadia, Segoe UI Emoji" font-size="36px" fill="#f08c00" text-anchor="start" style="white-space: pre;" direction="ltr" dominant-baseline="text-before-edge">19</text></g><g transform="translate(1804.2087673611254 86.57291666666259) rotate(0 21.09375 21.599999999999994)"><text x="0" y="0" font-family="Cascadia, Segoe UI Emoji" font-size="36px" fill="#1971c2" text-anchor="start" style="white-space: pre;" direction="ltr" dominant-baseline="text-before-edge">88</text></g><g stroke-linecap="round"><g transform="translate(1319.1189236111254 1274.0322916666623) rotate(0 254.83149578077462 -545.76905464828)"><path d="M0.95 0.85 C184.94 -395.35, 367.77 -789.11, 510.09 -1092.39 M-0.42 0.39 C193.85 -419.3, 388.92 -838.46, 509.01 -1091.87" stroke="#f08c00" stroke-width="1" fill="none"></path></g><g transform="translate(1319.1189236111254 1274.0322916666623) rotate(0 254.83149578077462 -545.76905464828)"><path d="M508.66 -1059.86 C511.01 -1076.69, 510.09 -1086.93, 512.19 -1093.17 M505.23 -1061.02 C508.52 -1073.76, 508.21 -1083.73, 509.49 -1091.87" stroke="#f08c00" stroke-width="1" fill="none"></path></g><g transform="translate(1319.1189236111254 1274.0322916666623) rotate(0 254.83149578077462 -545.76905464828)"><path d="M490.09 -1068.6 C499.14 -1082.26, 504.92 -1089.35, 512.19 -1093.17 M486.66 -1069.76 C497.14 -1079.08, 503.96 -1085.7, 509.49 -1091.87" stroke="#f08c00" stroke-width="1" fill="none"></path></g></g><mask></mask><g transform="translate(2374.9294704861245 103.01822916666248) rotate(0 63.28125 21.599999999999994)"><text x="0" y="0" font-family="Cascadia, Segoe UI Emoji" font-size="36px" fill="#f08c00" text-anchor="start" style="white-space: pre;" direction="ltr" dominant-baseline="text-before-edge">97  49</text></g><g stroke-linecap="round"><g transform="translate(1842.1755642361252 1270.4580729166623) rotate(0 273.3153248434422 -557.0988284334538)"><path d="M0.71 -1.59 C187.39 -378.95, 373.11 -761.73, 546.3 -1113.37 M0.33 0.15 C141.48 -278.8, 277.35 -557.42, 545.06 -1114.35" stroke="#f08c00" stroke-width="1" fill="none"></path></g><g transform="translate(1842.1755642361252 1270.4580729166623) rotate(0 273.3153248434422 -557.0988284334538)"><path d="M543.82 -1088.47 C546.26 -1091.92, 544.92 -1105.84, 546.48 -1110.86 M542.87 -1084.12 C543.11 -1090.91, 543.78 -1100.88, 543.36 -1113.31" stroke="#f08c00" stroke-width="1" fill="none"></path></g><g transform="translate(1842.1755642361252 1270.4580729166623) rotate(0 273.3153248434422 -557.0988284334538)"><path d="M525.34 -1097.38 C534.11 -1097.68, 539.09 -1108.55, 546.48 -1110.86 M524.39 -1093.03 C529.11 -1097.74, 534.39 -1105.49, 543.36 -1113.31" stroke="#f08c00" stroke-width="1" fill="none"></path></g></g><mask></mask><g transform="translate(2182.634548611125 94.4619791666625) rotate(0 21.09375 21.599999999999994)"><text x="0" y="0" font-family="Cascadia, Segoe UI Emoji" font-size="36px" fill="#f08c00" text-anchor="start" style="white-space: pre;" direction="ltr" dominant-baseline="text-before-edge">19</text></g><g stroke-linecap="round"><g transform="translate(1093.6892361111254 1268.2022135416623) rotate(0 541.8897588597314 -526.1328686743973)"><path d="M0.34 1.24 C315.35 -309.75, 633.12 -620.26, 1084.45 -1053.5 M-0.67 0.58 C375.75 -361.31, 755.13 -730.15, 1083.25 -1053.41" stroke="#e03131" stroke-width="4" fill="none"></path></g><g transform="translate(1093.6892361111254 1268.2022135416623) rotate(0 541.8897588597314 -526.1328686743973)"><path d="M1071.16 -1023.25 C1076.93 -1031.57, 1077.28 -1040.41, 1085.15 -1054.27 M1068.64 -1024.9 C1073.2 -1034.83, 1077.42 -1044.37, 1082.15 -1054.04" stroke="#e03131" stroke-width="4" fill="none"></path></g><g transform="translate(1093.6892361111254 1268.2022135416623) rotate(0 541.8897588597314 -526.1328686743973)"><path d="M1056.79 -1037.9 C1066.96 -1041.92, 1071.55 -1046.45, 1085.15 -1054.27 M1054.27 -1039.55 C1063.97 -1044.11, 1073.22 -1048.52, 1082.15 -1054.04" stroke="#e03131" stroke-width="4" fill="none"></path></g></g><mask></mask><g stroke-linecap="round"><g transform="translate(2203.601345486125 210.93658854166245) rotate(0 213.54397606480597 60.14060532535538)"><path d="M-1.18 -1.17 C62.08 34.48, 119.94 74.15, 203.49 121.78 M0.87 -1.18 C42.33 26.91, 85.79 52.94, 202.3 121.62 M199.5 124.97 C263.88 89.26, 319.55 54.96, 428.14 -4.69 M202.87 124.14 C286 72.87, 371.78 27, 428.27 -3.17" stroke="#e03131" stroke-width="4" fill="none"></path></g><g transform="translate(2203.601345486125 210.93658854166245) rotate(0 213.54397606480597 60.14060532535538)"><path d="M406.89 17.81 C417.23 9.06, 418.54 4.45, 430.15 -4.94 M409.34 17.8 C413.18 13.59, 416.97 7.78, 428.74 -5.13" stroke="#e03131" stroke-width="4" fill="none"></path></g><g transform="translate(2203.601345486125 210.93658854166245) rotate(0 213.54397606480597 60.14060532535538)"><path d="M397.17 -0.26 C410.17 -3.51, 414.46 -2.58, 430.15 -4.94 M399.63 -0.27 C405.28 -0.51, 411.18 -2.38, 428.74 -5.13" stroke="#e03131" stroke-width="4" fill="none"></path></g></g><mask></mask><g transform="translate(1705.3689236111254 97.1670572916629) rotate(0 21.09375 21.599999999999994)"><text x="0" y="0" font-family="Cascadia, Segoe UI Emoji" font-size="36px" fill="#e03131" text-anchor="start" style="white-space: pre;" direction="ltr" dominant-baseline="text-before-edge">65</text></g><g transform="translate(2078.7380642361254 1563.8076822916628) rotate(0 548.4375 129.60000000000002)"><text x="0" y="0" font-family="Cascadia, Segoe UI Emoji" font-size="36px" fill="#e03131" text-anchor="start" style="white-space: pre;" direction="ltr" dominant-baseline="text-before-edge">int check_win(struct board g, char sym) {</text><text x="0" y="43.199999999999996" font-family="Cascadia, Segoe UI Emoji" font-size="36px" fill="#e03131" text-anchor="start" style="white-space: pre;" direction="ltr" dominant-baseline="text-before-edge">    if (g.a0 == sym &amp;&amp; g.a1 == sym &amp;&amp; g.a2 == sym) {</text><text x="0" y="86.39999999999999" font-family="Cascadia, Segoe UI Emoji" font-size="36px" fill="#e03131" text-anchor="start" style="white-space: pre;" direction="ltr" dominant-baseline="text-before-edge">        return 1;</text><text x="0" y="129.6" font-family="Cascadia, Segoe UI Emoji" font-size="36px" fill="#e03131" text-anchor="start" style="white-space: pre;" direction="ltr" dominant-baseline="text-before-edge">    }</text><text x="0" y="172.79999999999998" font-family="Cascadia, Segoe UI Emoji" font-size="36px" fill="#e03131" text-anchor="start" style="white-space: pre;" direction="ltr" dominant-baseline="text-before-edge">    return 0;</text><text x="0" y="215.99999999999997" font-family="Cascadia, Segoe UI Emoji" font-size="36px" fill="#e03131" text-anchor="start" style="white-space: pre;" direction="ltr" dominant-baseline="text-before-edge">}</text></g></svg>